<svg xmlns="http://www.w3.org/2000/svg" xmlns:xlink="http://www.w3.org/1999/xlink" width="1080" zoomAndPan="magnify" viewBox="0 0 810 809.999993" height="1080" preserveAspectRatio="xMidYMid meet" version="1.0"><defs><clipPath id="a38765f738"><path d="M 47.894531 339.613281 C 71.460938 367.949219 71.507812 443.128906 48.078125 471.578125 C 18.617188 507.339844 0.96875 553.09375 0.96875 602.839844 C 0.96875 717.714844 94.023438 810 207.648438 810 C 257.648438 810 303.414062 792.414062 339.15625 763.039062 C 367.671875 739.605469 443.308594 739.605469 471.820312 763.035156 C 507.5625 792.414062 553.332031 810 603.34375 810 C 716.964844 810 810 717.714844 810 602.839844 C 810 552.726562 791.804688 506.664062 761.847656 470.78125 C 738.308594 442.59375 738.308594 368.371094 761.8125 340.152344 C 791.792969 304.15625 810 257.832031 810 207.160156 C 810 93.277344 716.964844 0 603.34375 0 C 553.761719 0 508.53125 17.199219 472.976562 45.984375 C 444.03125 69.417969 365.503906 69.15625 336.558594 45.722656 C 301.195312 17.09375 256.089844 0 206.65625 0 C 93.03125 0 0 93.277344 0 207.160156 C 0 257.578125 18.027344 303.695312 47.894531 339.613281 Z M 47.894531 339.613281 " clip-rule="nonzero"/></clipPath><clipPath id="d74e9ddfe5"><path d="M 0 0 L 810 0 L 810 810 L 0 810 Z M 0 0 " clip-rule="nonzero"/></clipPath><clipPath id="db647f9e00"><path d="M 47.894531 339.613281 C 71.460938 367.949219 71.507812 443.128906 48.078125 471.578125 C 18.617188 507.339844 0.96875 553.09375 0.96875 602.839844 C 0.96875 717.714844 94.023438 810 207.648438 810 C 257.648438 810 303.414062 792.414062 339.15625 763.039062 C 367.671875 739.605469 443.308594 739.605469 471.820312 763.035156 C 507.5625 792.414062 553.332031 810 603.34375 810 C 716.964844 810 810 717.714844 810 602.839844 C 810 552.726562 791.804688 506.664062 761.847656 470.78125 C 738.308594 442.59375 738.308594 368.371094 761.8125 340.152344 C 791.792969 304.15625 810 257.832031 810 207.160156 C 810 93.277344 716.964844 0 603.34375 0 C 553.761719 0 508.53125 17.199219 472.976562 45.984375 C 444.03125 69.417969 365.503906 69.15625 336.558594 45.722656 C 301.195312 17.09375 256.089844 0 206.65625 0 C 93.03125 0 0 93.277344 0 207.160156 C 0 257.578125 18.027344 303.695312 47.894531 339.613281 Z M 47.894531 339.613281 " clip-rule="nonzero"/></clipPath><clipPath id="21f92499a0"><rect x="0" width="810" y="0" height="810"/></clipPath></defs><g clip-path="url(#a38765f738)"><g transform="matrix(1, 0, 0, 1, 0, 0.000000000000039746)"><g clip-path="url(#21f92499a0)"><g clip-path="url(#d74e9ddfe5)"><g clip-path="url(#db647f9e00)"><rect x="-178.2" width="1166.4" fill="#919191" height="1166.39999" y="-178.199998" fill-opacity="1"/></g></g></g></g></g></svg>