<svg xmlns="http://www.w3.org/2000/svg" xmlns:xlink="http://www.w3.org/1999/xlink" width="1584" zoomAndPan="magnify" viewBox="0 0 1188 296.999993" height="396" preserveAspectRatio="xMidYMid meet" version="1.0"><defs><g/></defs><g fill="#543618" fill-opacity="1"><g transform="translate(55.476573, 218.116624)"><g><path d="M 117.453125 -62.71875 C 115.523438 -62.957031 113.472656 -63.710938 111.296875 -64.984375 C 109.117188 -66.253906 107.242188 -66.890625 105.671875 -66.890625 C 103.378906 -66.890625 101.144531 -66.914062 98.96875 -66.96875 C 96.789062 -67.03125 94.617188 -67.363281 92.453125 -67.96875 C 91.722656 -68.21875 90.660156 -68.613281 89.265625 -69.15625 C 87.878906 -69.695312 86.882812 -69.847656 86.28125 -69.609375 C 85.550781 -69.242188 85.097656 -68.910156 84.921875 -68.609375 C 84.742188 -68.304688 84.171875 -68.035156 83.203125 -67.796875 C 82.597656 -67.671875 81.507812 -67.726562 79.9375 -67.96875 C 78.363281 -68.21875 77.21875 -68.398438 76.5 -68.515625 C 76.375 -68.398438 76.25 -68.3125 76.125 -68.25 C 76.007812 -68.1875 75.890625 -68.09375 75.765625 -67.96875 C 75.160156 -67.488281 74.644531 -66.160156 74.21875 -63.984375 C 73.800781 -61.804688 73.472656 -59.359375 73.234375 -56.640625 C 72.992188 -53.921875 72.8125 -51.351562 72.6875 -48.9375 C 72.5625 -46.519531 72.5 -44.828125 72.5 -43.859375 C 72.382812 -42.535156 72.566406 -41.238281 73.046875 -39.96875 C 73.535156 -38.695312 73.65625 -37.335938 73.40625 -35.890625 C 73.289062 -34.679688 73.082031 -32.988281 72.78125 -30.8125 C 72.476562 -28.632812 71.960938 -27.003906 71.234375 -25.921875 C 70.867188 -25.316406 69.929688 -24.863281 68.421875 -24.5625 C 66.910156 -24.257812 65.367188 -24.078125 63.796875 -24.015625 C 62.234375 -23.953125 61.148438 -23.984375 60.546875 -24.109375 C 58.492188 -24.835938 57.222656 -26.109375 56.734375 -27.921875 C 56.253906 -29.734375 56.070312 -31.722656 56.1875 -33.890625 C 56.3125 -36.066406 56.253906 -37.941406 56.015625 -39.515625 C 55.890625 -40.597656 55.859375 -41.679688 55.921875 -42.765625 C 55.984375 -43.859375 56.015625 -45.007812 56.015625 -46.21875 C 55.890625 -48.269531 56.035156 -50.234375 56.453125 -52.109375 C 56.878906 -53.984375 57.21875 -55.890625 57.46875 -57.828125 C 56.007812 -59.398438 55.25 -60.878906 55.1875 -62.265625 C 55.132812 -63.648438 55.378906 -65.066406 55.921875 -66.515625 C 56.460938 -67.972656 56.796875 -69.488281 56.921875 -71.0625 C 57.160156 -72.382812 57.066406 -73.707031 56.640625 -75.03125 C 56.222656 -76.363281 55.953125 -77.632812 55.828125 -78.84375 C 55.109375 -79.207031 53.535156 -79.75 51.109375 -80.46875 C 48.691406 -81.195312 46.09375 -81.984375 43.3125 -82.828125 C 40.539062 -83.679688 38.035156 -84.285156 35.796875 -84.640625 C 33.566406 -85.003906 32.207031 -85.007812 31.71875 -84.65625 C 31.351562 -84.289062 31.082031 -83.109375 30.90625 -81.109375 C 30.726562 -79.117188 30.640625 -77.820312 30.640625 -77.21875 C 30.640625 -75.28125 30.578125 -73.859375 30.453125 -72.953125 C 30.328125 -72.046875 29.722656 -70.75 28.640625 -69.0625 C 27.671875 -67.488281 27.335938 -66.28125 27.640625 -65.4375 C 27.941406 -64.59375 28.273438 -63.382812 28.640625 -61.8125 C 28.878906 -60.726562 29 -59.609375 29 -58.453125 C 29 -57.304688 29.0625 -56.191406 29.1875 -55.109375 C 29.300781 -53.046875 29.421875 -50.957031 29.546875 -48.84375 C 29.671875 -46.726562 29.972656 -44.644531 30.453125 -42.59375 C 30.929688 -40.664062 31.59375 -39.21875 32.4375 -38.25 C 33.289062 -37.28125 34.078125 -36.097656 34.796875 -34.703125 C 35.523438 -33.316406 35.828125 -30.992188 35.703125 -27.734375 C 35.703125 -26.398438 35.582031 -24.675781 35.34375 -22.5625 C 35.101562 -20.445312 35.015625 -18.390625 35.078125 -16.390625 C 35.140625 -14.398438 35.472656 -12.863281 36.078125 -11.78125 C 37.398438 -9.488281 37.515625 -7.914062 36.421875 -7.0625 C 35.335938 -6.21875 33.769531 -5.554688 31.71875 -5.078125 C 29.664062 -4.585938 27.398438 -4.523438 24.921875 -4.890625 C 22.441406 -5.253906 20.597656 -6.460938 19.390625 -8.515625 C 18.910156 -9.484375 18.367188 -11.414062 17.765625 -14.3125 C 17.160156 -17.21875 16.613281 -20.210938 16.125 -23.296875 C 15.644531 -26.378906 15.222656 -28.644531 14.859375 -30.09375 C 14.378906 -32.875 13.863281 -35.625 13.3125 -38.34375 C 12.769531 -41.0625 12.378906 -43.75 12.140625 -46.40625 C 12.023438 -47.613281 11.753906 -48.789062 11.328125 -49.9375 C 10.898438 -51.082031 10.507812 -52.203125 10.15625 -53.296875 C 10.15625 -55.222656 10.425781 -57.09375 10.96875 -58.90625 C 11.507812 -60.71875 11.960938 -62.59375 12.328125 -64.53125 C 12.691406 -66.21875 12.8125 -67.96875 12.6875 -69.78125 C 12.5625 -71.59375 12.5625 -73.40625 12.6875 -75.21875 C 12.925781 -77.28125 13.101562 -79.21875 13.21875 -81.03125 C 13.34375 -82.84375 13.953125 -84.710938 15.046875 -86.640625 C 15.410156 -87.367188 15.59375 -87.972656 15.59375 -88.453125 C 15.832031 -92.328125 17.25 -95.773438 19.84375 -98.796875 C 22.445312 -101.816406 25.800781 -102.84375 29.90625 -101.875 C 33.050781 -101.269531 36.222656 -101.023438 39.421875 -101.140625 C 42.628906 -101.265625 45.742188 -100.90625 48.765625 -100.0625 C 50.085938 -99.820312 51.171875 -99.273438 52.015625 -98.421875 C 52.867188 -97.578125 53.898438 -97.035156 55.109375 -96.796875 C 56.078125 -96.671875 56.984375 -96.519531 57.828125 -96.34375 C 58.671875 -96.164062 59.515625 -95.894531 60.359375 -95.53125 C 62.296875 -94.800781 64.320312 -94.253906 66.4375 -93.890625 C 68.550781 -93.535156 70.363281 -92.875 71.875 -91.90625 C 73.382812 -90.9375 74.195312 -89 74.3125 -86.09375 C 75.519531 -86.09375 76.910156 -85.972656 78.484375 -85.734375 C 80.054688 -85.492188 81.328125 -85.492188 82.296875 -85.734375 C 83.265625 -86.097656 83.988281 -86.398438 84.46875 -86.640625 C 84.945312 -86.878906 85.734375 -86.941406 86.828125 -86.828125 C 89.242188 -86.828125 91.539062 -86.460938 93.71875 -85.734375 C 95.894531 -85.015625 98.128906 -84.351562 100.421875 -83.75 C 101.390625 -83.5 102.175781 -83.375 102.78125 -83.375 C 105.5625 -83.019531 108.3125 -82.539062 111.03125 -81.9375 C 113.75 -81.332031 116.4375 -80.90625 119.09375 -80.65625 C 120.175781 -80.65625 121.257812 -80.65625 122.34375 -80.65625 C 123.4375 -80.65625 124.46875 -80.414062 125.4375 -79.9375 C 126.769531 -79.332031 128.097656 -78.304688 129.421875 -76.859375 C 130.753906 -75.410156 131.84375 -74.140625 132.6875 -73.046875 C 133.53125 -71.960938 134.253906 -70.785156 134.859375 -69.515625 C 135.460938 -68.242188 135.828125 -66.945312 135.953125 -65.625 C 135.953125 -63.6875 135.648438 -61.8125 135.046875 -60 C 134.441406 -58.1875 134.140625 -56.3125 134.140625 -54.375 C 134.140625 -49.90625 133.957031 -45.40625 133.59375 -40.875 C 133.226562 -36.34375 133.046875 -31.78125 133.046875 -27.1875 C 133.046875 -24.40625 132.171875 -22.5 130.421875 -21.46875 C 128.671875 -20.445312 126.644531 -19.992188 124.34375 -20.109375 C 122.050781 -20.234375 120 -20.6875 118.1875 -21.46875 C 116.375 -22.257812 115.347656 -23.019531 115.109375 -23.75 C 114.503906 -25.5625 114.320312 -27.675781 114.5625 -30.09375 C 114.800781 -32.507812 114.921875 -34.679688 114.921875 -36.609375 C 114.921875 -37.335938 115.070312 -38.0625 115.375 -38.78125 C 115.675781 -39.507812 115.890625 -40.238281 116.015625 -40.96875 C 116.253906 -43.019531 116.460938 -45.039062 116.640625 -47.03125 C 116.828125 -49.03125 116.976562 -50.992188 117.09375 -52.921875 C 117.21875 -53.410156 117.304688 -53.863281 117.359375 -54.28125 C 117.421875 -54.707031 117.394531 -55.164062 117.28125 -55.65625 C 117.28125 -56.132812 117.304688 -56.945312 117.359375 -58.09375 C 117.421875 -59.238281 117.453125 -60.296875 117.453125 -61.265625 C 117.453125 -62.234375 117.453125 -62.71875 117.453125 -62.71875 Z M 117.453125 -62.71875 "/></g></g></g><g fill="#543618" fill-opacity="1"><g transform="translate(202.473436, 218.116624)"><g><path d="M 96.25 -0.90625 C 95.039062 -2.238281 94.316406 -4.050781 94.078125 -6.34375 C 93.835938 -8.632812 93.6875 -10.804688 93.625 -12.859375 C 93.5625 -14.921875 93.046875 -16.132812 92.078125 -16.5 C 91.234375 -16.851562 89.238281 -17.03125 86.09375 -17.03125 C 82.957031 -17.03125 79.394531 -16.941406 75.40625 -16.765625 C 71.414062 -16.585938 67.695312 -16.40625 64.25 -16.21875 C 60.8125 -16.039062 58.425781 -15.890625 57.09375 -15.765625 C 54.914062 -15.648438 53.191406 -15.53125 51.921875 -15.40625 C 50.660156 -15.28125 48.878906 -15.460938 46.578125 -15.953125 C 45.617188 -16.191406 44.171875 -15.914062 42.234375 -15.125 C 40.296875 -14.34375 38.722656 -13.832031 37.515625 -13.59375 C 35.460938 -12.144531 33.921875 -9.878906 32.890625 -6.796875 C 31.867188 -3.710938 30.570312 -1.144531 29 0.90625 C 28.394531 1.632812 27.609375 2.539062 26.640625 3.625 C 25.679688 4.707031 25.078125 5.734375 24.828125 6.703125 C 24.585938 7.910156 24.46875 8.722656 24.46875 9.140625 C 24.46875 9.566406 24.046875 10.445312 23.203125 11.78125 C 22.722656 12.625 22.179688 13.46875 21.578125 14.3125 C 20.972656 15.164062 20.367188 16.015625 19.765625 16.859375 C 18.191406 16.617188 16.800781 16.523438 15.59375 16.578125 C 14.382812 16.640625 12.992188 16.734375 11.421875 16.859375 C 8.160156 16.972656 6.078125 16.304688 5.171875 14.859375 C 4.265625 13.410156 4.113281 11.597656 4.71875 9.421875 C 5.320312 7.242188 6.101562 5.191406 7.0625 3.265625 C 7.425781 2.660156 8.148438 1.8125 9.234375 0.71875 C 10.328125 -0.363281 10.875 -1.144531 10.875 -1.625 C 10.75 -1.875 10.65625 -2.148438 10.59375 -2.453125 C 10.539062 -2.753906 10.453125 -2.960938 10.328125 -3.078125 C 11.535156 -4.890625 12.625 -6.066406 13.59375 -6.609375 C 14.5625 -7.160156 15.46875 -8.644531 16.3125 -11.0625 C 12.082031 -11.539062 9.546875 -12.71875 8.703125 -14.59375 C 7.859375 -16.46875 8.066406 -18.488281 9.328125 -20.65625 C 10.597656 -22.832031 12.378906 -24.738281 14.671875 -26.375 C 16.972656 -28.007812 19.09375 -28.828125 21.03125 -28.828125 C 22 -28.828125 23.144531 -28.765625 24.46875 -28.640625 C 25.800781 -28.515625 26.769531 -29 27.375 -30.09375 C 28.21875 -31.539062 28.757812 -32.472656 29 -32.890625 C 29.238281 -33.316406 29.539062 -33.679688 29.90625 -33.984375 C 30.269531 -34.285156 31.054688 -34.984375 32.265625 -36.078125 C 32.867188 -36.679688 33.109375 -37.375 32.984375 -38.15625 C 32.867188 -38.9375 32.867188 -39.691406 32.984375 -40.421875 C 33.234375 -41.265625 33.988281 -42.894531 35.25 -45.3125 C 36.519531 -47.726562 37.847656 -50.144531 39.234375 -52.5625 C 40.628906 -54.976562 41.628906 -56.550781 42.234375 -57.28125 C 43.203125 -58.613281 43.925781 -59.703125 44.40625 -60.546875 C 44.894531 -61.390625 45.316406 -62.597656 45.671875 -64.171875 C 46.035156 -65.859375 46.765625 -67.25 47.859375 -68.34375 C 49.304688 -69.789062 50.332031 -71.175781 50.9375 -72.5 C 51.539062 -73.832031 52.296875 -75.132812 53.203125 -76.40625 C 54.109375 -77.675781 55.53125 -78.972656 57.46875 -80.296875 C 59.03125 -81.390625 60.988281 -81.960938 63.34375 -82.015625 C 65.707031 -82.078125 68.097656 -82.015625 70.515625 -81.828125 C 72.929688 -81.648438 75.101562 -81.6875 77.03125 -81.9375 C 78 -82.050781 78.96875 -82.257812 79.9375 -82.5625 C 80.90625 -82.863281 81.875 -83.015625 82.84375 -83.015625 C 84.40625 -83.140625 86.125 -83.019531 88 -82.65625 C 89.875 -82.289062 91.476562 -81.75 92.8125 -81.03125 C 94.132812 -80.425781 95.25 -79.695312 96.15625 -78.84375 C 97.0625 -78 97.695312 -76.914062 98.0625 -75.59375 C 98.425781 -74.382812 98.664062 -73.144531 98.78125 -71.875 C 98.90625 -70.601562 99.03125 -69.363281 99.15625 -68.15625 C 99.519531 -66.34375 99.910156 -64.5625 100.328125 -62.8125 C 100.753906 -61.0625 100.96875 -59.28125 100.96875 -57.46875 C 100.96875 -56.257812 100.84375 -54.773438 100.59375 -53.015625 C 100.351562 -51.265625 100.597656 -49.90625 101.328125 -48.9375 C 101.929688 -47.851562 102.566406 -46.976562 103.234375 -46.3125 C 103.898438 -45.644531 104.410156 -44.648438 104.765625 -43.328125 C 105.015625 -42.722656 105.140625 -42.085938 105.140625 -41.421875 C 105.140625 -40.753906 105.140625 -40.054688 105.140625 -39.328125 C 105.140625 -35.828125 105.617188 -32.320312 106.578125 -28.8125 C 107.546875 -25.3125 108.332031 -21.8125 108.9375 -18.3125 C 109.664062 -14.4375 110.421875 -10.566406 111.203125 -6.703125 C 111.992188 -2.835938 112.867188 1.023438 113.828125 4.890625 C 114.554688 7.671875 114.617188 10 114.015625 11.875 C 113.410156 13.75 111.359375 14.625 107.859375 14.5 C 107.003906 14.5 106.210938 14.554688 105.484375 14.671875 C 104.765625 14.796875 103.984375 14.859375 103.140625 14.859375 C 101.453125 14.859375 100.09375 13.832031 99.0625 11.78125 C 98.03125 9.726562 97.300781 7.398438 96.875 4.796875 C 96.457031 2.203125 96.25 0.300781 96.25 -0.90625 Z M 83.015625 -64.71875 C 81.929688 -64.832031 80.148438 -65.007812 77.671875 -65.25 C 75.191406 -65.5 72.800781 -65.648438 70.5 -65.703125 C 68.207031 -65.765625 66.640625 -65.492188 65.796875 -64.890625 C 64.828125 -64.171875 64.160156 -63.328125 63.796875 -62.359375 C 63.441406 -61.390625 62.960938 -60.363281 62.359375 -59.28125 L 48.578125 -33.71875 C 48.210938 -33.113281 47.96875 -32.507812 47.84375 -31.90625 C 47.726562 -31.300781 47.609375 -30.632812 47.484375 -29.90625 C 50.867188 -29.90625 54.191406 -29.992188 57.453125 -30.171875 C 60.722656 -30.359375 64.050781 -30.875 67.4375 -31.71875 C 68.757812 -31.957031 70.054688 -32.046875 71.328125 -31.984375 C 72.597656 -31.929688 73.894531 -31.785156 75.21875 -31.546875 C 76.3125 -31.421875 77.367188 -31.238281 78.390625 -31 C 79.421875 -30.757812 80.476562 -30.757812 81.5625 -31 C 82.414062 -31.238281 83.234375 -31.507812 84.015625 -31.8125 C 84.796875 -32.113281 85.613281 -32.265625 86.46875 -32.265625 C 86.707031 -32.867188 87.003906 -33.410156 87.359375 -33.890625 C 87.722656 -34.378906 87.96875 -34.863281 88.09375 -35.34375 C 87.851562 -37.15625 87.609375 -38.9375 87.359375 -40.6875 C 87.117188 -42.445312 86.820312 -44.234375 86.46875 -46.046875 C 86.21875 -47.609375 85.851562 -49.234375 85.375 -50.921875 C 84.894531 -52.617188 84.894531 -54.253906 85.375 -55.828125 C 85.613281 -56.554688 85.820312 -57.070312 86 -57.375 C 86.1875 -57.675781 86.160156 -58.1875 85.921875 -58.90625 C 85.554688 -59.875 85.101562 -60.84375 84.5625 -61.8125 C 84.019531 -62.78125 83.503906 -63.75 83.015625 -64.71875 Z M 83.015625 -64.71875 "/></g></g></g><g fill="#543618" fill-opacity="1"><g transform="translate(324.638524, 218.116624)"><g><path d="M 63.265625 -1.625 C 62.535156 0.664062 61.320312 1.78125 59.625 1.71875 C 57.9375 1.65625 56.1875 1.75 54.375 2 C 49.425781 2.71875 44.203125 2.679688 38.703125 1.890625 C 33.203125 1.109375 28.519531 -1.03125 24.65625 -4.53125 L 19.390625 -5.984375 C 18.304688 -6.953125 17.1875 -8.160156 16.03125 -9.609375 C 14.882812 -11.054688 14.070312 -12.445312 13.59375 -13.78125 C 13.351562 -14.625 13.203125 -16.40625 13.140625 -19.125 C 13.078125 -21.84375 13.101562 -24.617188 13.21875 -27.453125 C 13.34375 -30.296875 13.46875 -32.203125 13.59375 -33.171875 C 13.832031 -34.859375 14.191406 -36.941406 14.671875 -39.421875 C 15.160156 -41.898438 15.769531 -43.863281 16.5 -45.3125 C 17.457031 -47.363281 19.054688 -49.960938 21.296875 -53.109375 C 23.535156 -56.253906 25.890625 -59.335938 28.359375 -62.359375 C 30.835938 -65.378906 32.863281 -67.675781 34.4375 -69.25 C 35.769531 -70.570312 37.671875 -71.742188 40.140625 -72.765625 C 42.617188 -73.796875 44.285156 -74.914062 45.140625 -76.125 C 45.378906 -76.613281 45.648438 -77.097656 45.953125 -77.578125 C 46.253906 -78.066406 46.585938 -78.550781 46.953125 -79.03125 C 47.429688 -79.632812 48.664062 -80.507812 50.65625 -81.65625 C 52.65625 -82.800781 54.742188 -83.914062 56.921875 -85 C 59.097656 -86.09375 60.546875 -86.703125 61.265625 -86.828125 C 63.203125 -87.304688 65.890625 -87.664062 69.328125 -87.90625 C 72.773438 -88.15625 76.21875 -88.21875 79.65625 -88.09375 C 83.101562 -87.96875 85.675781 -87.546875 87.375 -86.828125 C 89.789062 -85.859375 91.539062 -84.226562 92.625 -81.9375 C 93.59375 -80.125 93.65625 -78.25 92.8125 -76.3125 C 91.96875 -74.375 90.632812 -72.738281 88.8125 -71.40625 C 87 -70.082031 85.1875 -69.421875 83.375 -69.421875 C 82.65625 -69.421875 82.050781 -69.300781 81.5625 -69.0625 C 81.082031 -68.820312 80.539062 -68.640625 79.9375 -68.515625 C 79.09375 -68.398438 78.335938 -68.582031 77.671875 -69.0625 C 77.003906 -69.539062 76.429688 -70.082031 75.953125 -70.6875 C 73.410156 -69.125 71.113281 -69.1875 69.0625 -70.875 C 68.21875 -70.394531 67.429688 -69.789062 66.703125 -69.0625 C 65.984375 -68.332031 65.140625 -67.726562 64.171875 -67.25 C 62.960938 -66.769531 61.722656 -66.4375 60.453125 -66.25 C 59.179688 -66.070312 57.882812 -65.800781 56.5625 -65.4375 C 55.707031 -65.195312 54.429688 -64.320312 52.734375 -62.8125 C 51.046875 -61.300781 49.414062 -59.757812 47.84375 -58.1875 C 46.28125 -56.613281 45.132812 -55.40625 44.40625 -54.5625 C 43.195312 -52.988281 41.742188 -51.75 40.046875 -50.84375 C 38.359375 -49.9375 36.851562 -48.816406 35.53125 -47.484375 C 34.800781 -46.765625 34.101562 -45.4375 33.4375 -43.5 C 32.78125 -41.570312 32.117188 -39.578125 31.453125 -37.515625 C 30.785156 -35.460938 30.03125 -33.773438 29.1875 -32.453125 C 28.695312 -30.878906 28.453125 -28.941406 28.453125 -26.640625 C 28.453125 -24.347656 29.054688 -22.535156 30.265625 -21.203125 C 31.960938 -19.273438 34.320312 -17.40625 37.34375 -15.59375 C 40.363281 -13.78125 43.203125 -12.875 45.859375 -12.875 C 47.304688 -12.875 49.300781 -13.414062 51.84375 -14.5 C 54.382812 -15.582031 56.316406 -16.367188 57.640625 -16.859375 C 59.941406 -17.828125 61.664062 -18.28125 62.8125 -18.21875 C 63.957031 -18.15625 65.675781 -18.1875 67.96875 -18.3125 C 69.78125 -18.425781 71.679688 -19.023438 73.671875 -20.109375 C 75.671875 -21.203125 77.519531 -21.992188 79.21875 -22.484375 C 79.820312 -22.722656 80.453125 -22.898438 81.109375 -23.015625 C 81.773438 -23.140625 82.351562 -23.320312 82.84375 -23.5625 C 83.5625 -23.800781 84.707031 -24.523438 86.28125 -25.734375 C 87.851562 -26.941406 88.941406 -27.789062 89.546875 -28.28125 C 92.691406 -28.394531 94.742188 -27.609375 95.703125 -25.921875 C 96.671875 -24.234375 97.757812 -22.238281 98.96875 -19.9375 C 99.570312 -18.851562 99.992188 -17.765625 100.234375 -16.671875 C 100.484375 -15.585938 100.242188 -14.441406 99.515625 -13.234375 C 98.785156 -12.023438 97.332031 -10.664062 95.15625 -9.15625 C 92.988281 -7.644531 91.175781 -6.890625 89.71875 -6.890625 L 87.734375 -7.0625 C 86.523438 -7.0625 84.585938 -6.546875 81.921875 -5.515625 C 79.265625 -4.492188 77.273438 -3.679688 75.953125 -3.078125 C 73.296875 -1.867188 70.878906 -1.472656 68.703125 -1.890625 C 66.523438 -2.316406 64.710938 -2.226562 63.265625 -1.625 Z M 63.265625 -1.625 "/></g></g></g><g fill="#543618" fill-opacity="1"><g transform="translate(431.940794, 218.116624)"><g><path d="M 96.25 -0.90625 C 95.039062 -2.238281 94.316406 -4.050781 94.078125 -6.34375 C 93.835938 -8.632812 93.6875 -10.804688 93.625 -12.859375 C 93.5625 -14.921875 93.046875 -16.132812 92.078125 -16.5 C 91.234375 -16.851562 89.238281 -17.03125 86.09375 -17.03125 C 82.957031 -17.03125 79.394531 -16.941406 75.40625 -16.765625 C 71.414062 -16.585938 67.695312 -16.40625 64.25 -16.21875 C 60.8125 -16.039062 58.425781 -15.890625 57.09375 -15.765625 C 54.914062 -15.648438 53.191406 -15.53125 51.921875 -15.40625 C 50.660156 -15.28125 48.878906 -15.460938 46.578125 -15.953125 C 45.617188 -16.191406 44.171875 -15.914062 42.234375 -15.125 C 40.296875 -14.34375 38.722656 -13.832031 37.515625 -13.59375 C 35.460938 -12.144531 33.921875 -9.878906 32.890625 -6.796875 C 31.867188 -3.710938 30.570312 -1.144531 29 0.90625 C 28.394531 1.632812 27.609375 2.539062 26.640625 3.625 C 25.679688 4.707031 25.078125 5.734375 24.828125 6.703125 C 24.585938 7.910156 24.46875 8.722656 24.46875 9.140625 C 24.46875 9.566406 24.046875 10.445312 23.203125 11.78125 C 22.722656 12.625 22.179688 13.46875 21.578125 14.3125 C 20.972656 15.164062 20.367188 16.015625 19.765625 16.859375 C 18.191406 16.617188 16.800781 16.523438 15.59375 16.578125 C 14.382812 16.640625 12.992188 16.734375 11.421875 16.859375 C 8.160156 16.972656 6.078125 16.304688 5.171875 14.859375 C 4.265625 13.410156 4.113281 11.597656 4.71875 9.421875 C 5.320312 7.242188 6.101562 5.191406 7.0625 3.265625 C 7.425781 2.660156 8.148438 1.8125 9.234375 0.71875 C 10.328125 -0.363281 10.875 -1.144531 10.875 -1.625 C 10.75 -1.875 10.65625 -2.148438 10.59375 -2.453125 C 10.539062 -2.753906 10.453125 -2.960938 10.328125 -3.078125 C 11.535156 -4.890625 12.625 -6.066406 13.59375 -6.609375 C 14.5625 -7.160156 15.46875 -8.644531 16.3125 -11.0625 C 12.082031 -11.539062 9.546875 -12.71875 8.703125 -14.59375 C 7.859375 -16.46875 8.066406 -18.488281 9.328125 -20.65625 C 10.597656 -22.832031 12.378906 -24.738281 14.671875 -26.375 C 16.972656 -28.007812 19.09375 -28.828125 21.03125 -28.828125 C 22 -28.828125 23.144531 -28.765625 24.46875 -28.640625 C 25.800781 -28.515625 26.769531 -29 27.375 -30.09375 C 28.21875 -31.539062 28.757812 -32.472656 29 -32.890625 C 29.238281 -33.316406 29.539062 -33.679688 29.90625 -33.984375 C 30.269531 -34.285156 31.054688 -34.984375 32.265625 -36.078125 C 32.867188 -36.679688 33.109375 -37.375 32.984375 -38.15625 C 32.867188 -38.9375 32.867188 -39.691406 32.984375 -40.421875 C 33.234375 -41.265625 33.988281 -42.894531 35.25 -45.3125 C 36.519531 -47.726562 37.847656 -50.144531 39.234375 -52.5625 C 40.628906 -54.976562 41.628906 -56.550781 42.234375 -57.28125 C 43.203125 -58.613281 43.925781 -59.703125 44.40625 -60.546875 C 44.894531 -61.390625 45.316406 -62.597656 45.671875 -64.171875 C 46.035156 -65.859375 46.765625 -67.25 47.859375 -68.34375 C 49.304688 -69.789062 50.332031 -71.175781 50.9375 -72.5 C 51.539062 -73.832031 52.296875 -75.132812 53.203125 -76.40625 C 54.109375 -77.675781 55.53125 -78.972656 57.46875 -80.296875 C 59.03125 -81.390625 60.988281 -81.960938 63.34375 -82.015625 C 65.707031 -82.078125 68.097656 -82.015625 70.515625 -81.828125 C 72.929688 -81.648438 75.101562 -81.6875 77.03125 -81.9375 C 78 -82.050781 78.96875 -82.257812 79.9375 -82.5625 C 80.90625 -82.863281 81.875 -83.015625 82.84375 -83.015625 C 84.40625 -83.140625 86.125 -83.019531 88 -82.65625 C 89.875 -82.289062 91.476562 -81.75 92.8125 -81.03125 C 94.132812 -80.425781 95.25 -79.695312 96.15625 -78.84375 C 97.0625 -78 97.695312 -76.914062 98.0625 -75.59375 C 98.425781 -74.382812 98.664062 -73.144531 98.78125 -71.875 C 98.90625 -70.601562 99.03125 -69.363281 99.15625 -68.15625 C 99.519531 -66.34375 99.910156 -64.5625 100.328125 -62.8125 C 100.753906 -61.0625 100.96875 -59.28125 100.96875 -57.46875 C 100.96875 -56.257812 100.84375 -54.773438 100.59375 -53.015625 C 100.351562 -51.265625 100.597656 -49.90625 101.328125 -48.9375 C 101.929688 -47.851562 102.566406 -46.976562 103.234375 -46.3125 C 103.898438 -45.644531 104.410156 -44.648438 104.765625 -43.328125 C 105.015625 -42.722656 105.140625 -42.085938 105.140625 -41.421875 C 105.140625 -40.753906 105.140625 -40.054688 105.140625 -39.328125 C 105.140625 -35.828125 105.617188 -32.320312 106.578125 -28.8125 C 107.546875 -25.3125 108.332031 -21.8125 108.9375 -18.3125 C 109.664062 -14.4375 110.421875 -10.566406 111.203125 -6.703125 C 111.992188 -2.835938 112.867188 1.023438 113.828125 4.890625 C 114.554688 7.671875 114.617188 10 114.015625 11.875 C 113.410156 13.75 111.359375 14.625 107.859375 14.5 C 107.003906 14.5 106.210938 14.554688 105.484375 14.671875 C 104.765625 14.796875 103.984375 14.859375 103.140625 14.859375 C 101.453125 14.859375 100.09375 13.832031 99.0625 11.78125 C 98.03125 9.726562 97.300781 7.398438 96.875 4.796875 C 96.457031 2.203125 96.25 0.300781 96.25 -0.90625 Z M 83.015625 -64.71875 C 81.929688 -64.832031 80.148438 -65.007812 77.671875 -65.25 C 75.191406 -65.5 72.800781 -65.648438 70.5 -65.703125 C 68.207031 -65.765625 66.640625 -65.492188 65.796875 -64.890625 C 64.828125 -64.171875 64.160156 -63.328125 63.796875 -62.359375 C 63.441406 -61.390625 62.960938 -60.363281 62.359375 -59.28125 L 48.578125 -33.71875 C 48.210938 -33.113281 47.96875 -32.507812 47.84375 -31.90625 C 47.726562 -31.300781 47.609375 -30.632812 47.484375 -29.90625 C 50.867188 -29.90625 54.191406 -29.992188 57.453125 -30.171875 C 60.722656 -30.359375 64.050781 -30.875 67.4375 -31.71875 C 68.757812 -31.957031 70.054688 -32.046875 71.328125 -31.984375 C 72.597656 -31.929688 73.894531 -31.785156 75.21875 -31.546875 C 76.3125 -31.421875 77.367188 -31.238281 78.390625 -31 C 79.421875 -30.757812 80.476562 -30.757812 81.5625 -31 C 82.414062 -31.238281 83.234375 -31.507812 84.015625 -31.8125 C 84.796875 -32.113281 85.613281 -32.265625 86.46875 -32.265625 C 86.707031 -32.867188 87.003906 -33.410156 87.359375 -33.890625 C 87.722656 -34.378906 87.96875 -34.863281 88.09375 -35.34375 C 87.851562 -37.15625 87.609375 -38.9375 87.359375 -40.6875 C 87.117188 -42.445312 86.820312 -44.234375 86.46875 -46.046875 C 86.21875 -47.609375 85.851562 -49.234375 85.375 -50.921875 C 84.894531 -52.617188 84.894531 -54.253906 85.375 -55.828125 C 85.613281 -56.554688 85.820312 -57.070312 86 -57.375 C 86.1875 -57.675781 86.160156 -58.1875 85.921875 -58.90625 C 85.554688 -59.875 85.101562 -60.84375 84.5625 -61.8125 C 84.019531 -62.78125 83.503906 -63.75 83.015625 -64.71875 Z M 83.015625 -64.71875 "/></g></g></g><g fill="#543618" fill-opacity="1"><g transform="translate(554.105871, 218.116624)"><g><path d="M 98.0625 7.4375 C 97.09375 9.363281 95.789062 10.382812 94.15625 10.5 C 92.53125 10.625 90.960938 10.144531 89.453125 9.0625 C 87.941406 7.976562 86.882812 6.648438 86.28125 5.078125 C 85.800781 3.984375 85.195312 3.132812 84.46875 2.53125 C 83.738281 1.8125 82.769531 0.726562 81.5625 -0.71875 C 80.351562 -2.175781 79.207031 -3.535156 78.125 -4.796875 C 77.039062 -6.066406 76.195312 -6.882812 75.59375 -7.25 C 74.257812 -8.21875 73.472656 -9.125 73.234375 -9.96875 C 72.992188 -10.8125 72.328125 -11.65625 71.234375 -12.5 C 69.054688 -14.4375 67.242188 -16.28125 65.796875 -18.03125 C 64.347656 -19.789062 62.835938 -21.878906 61.265625 -24.296875 C 58.847656 -23.929688 56.398438 -23.6875 53.921875 -23.5625 C 51.441406 -23.445312 48.992188 -23.390625 46.578125 -23.390625 C 45.617188 -23.390625 44.65625 -23.476562 43.6875 -23.65625 C 42.71875 -23.832031 41.75 -23.679688 40.78125 -23.203125 C 38.851562 -22.359375 37.34375 -21.960938 36.25 -22.015625 C 35.164062 -22.078125 33.71875 -21.867188 31.90625 -21.390625 L 32.625 5.4375 C 32.75 8.695312 31.8125 10.835938 29.8125 11.859375 C 27.820312 12.890625 25.4375 13.53125 22.65625 13.78125 C 19.269531 14.257812 17.242188 13.679688 16.578125 12.046875 C 15.921875 10.421875 15.59375 8.21875 15.59375 5.4375 C 15.34375 -3.988281 15.003906 -13.441406 14.578125 -22.921875 C 14.160156 -32.410156 14.554688 -41.929688 15.765625 -51.484375 C 16.003906 -53.410156 16.273438 -55.492188 16.578125 -57.734375 C 16.878906 -59.972656 16.910156 -62 16.671875 -63.8125 C 16.554688 -64.65625 16.4375 -65.40625 16.3125 -66.0625 C 16.1875 -66.726562 16.304688 -67.488281 16.671875 -68.34375 C 17.160156 -69.664062 17.492188 -70.535156 17.671875 -70.953125 C 17.847656 -71.378906 17.90625 -71.832031 17.84375 -72.3125 C 17.789062 -72.800781 17.582031 -73.710938 17.21875 -75.046875 C 16.738281 -75.285156 16.285156 -75.554688 15.859375 -75.859375 C 15.429688 -76.160156 15.039062 -76.429688 14.6875 -76.671875 C 12.75 -76.066406 11.054688 -76.703125 9.609375 -78.578125 C 8.160156 -80.453125 7.132812 -82.113281 6.53125 -83.5625 C 6.882812 -84.53125 7.09375 -85.4375 7.15625 -86.28125 C 7.21875 -87.125 7.367188 -87.96875 7.609375 -88.8125 C 7.847656 -89.78125 8.390625 -90.476562 9.234375 -90.90625 C 10.085938 -91.332031 10.9375 -91.664062 11.78125 -91.90625 C 14.925781 -92.875 17.765625 -93.6875 20.296875 -94.34375 C 22.835938 -95.007812 25.800781 -95.039062 29.1875 -94.4375 C 31.601562 -93.957031 34.019531 -93.414062 36.4375 -92.8125 C 38.851562 -92.207031 41.269531 -91.84375 43.6875 -91.71875 C 45.5 -91.71875 47.191406 -91.535156 48.765625 -91.171875 C 52.023438 -90.566406 55.617188 -90.019531 59.546875 -89.53125 C 63.472656 -89.050781 67.335938 -88.359375 71.140625 -87.453125 C 74.953125 -86.546875 78.1875 -85.1875 80.84375 -83.375 C 82.050781 -82.53125 82.925781 -81.65625 83.46875 -80.75 C 84.007812 -79.84375 84.523438 -78.726562 85.015625 -77.40625 C 86.335938 -73.289062 87.90625 -69.175781 89.71875 -65.0625 C 91.539062 -60.957031 92.453125 -56.671875 92.453125 -52.203125 C 92.453125 -48.453125 92.390625 -45.304688 92.265625 -42.765625 C 92.140625 -40.234375 91.378906 -38.03125 89.984375 -36.15625 C 88.597656 -34.289062 86.09375 -32.269531 82.46875 -30.09375 C 81.988281 -29.726562 81.476562 -29.394531 80.9375 -29.09375 C 80.394531 -28.789062 79.820312 -28.519531 79.21875 -28.28125 C 80.300781 -26.46875 81.234375 -25.015625 82.015625 -23.921875 C 82.804688 -22.835938 84.046875 -21.628906 85.734375 -20.296875 C 86.941406 -19.453125 87.515625 -18.726562 87.453125 -18.125 C 87.398438 -17.519531 87.734375 -16.734375 88.453125 -15.765625 C 89.421875 -14.554688 90.414062 -13.285156 91.4375 -11.953125 C 92.46875 -10.628906 93.585938 -9.425781 94.796875 -8.34375 C 95.890625 -7.375 97.128906 -6.3125 98.515625 -5.15625 C 99.910156 -4.007812 101 -2.742188 101.78125 -1.359375 C 102.5625 0.0234375 102.59375 1.625 101.875 3.4375 C 101.507812 4.289062 100.960938 5.019531 100.234375 5.625 C 99.515625 6.226562 98.789062 6.832031 98.0625 7.4375 Z M 32.265625 -36.796875 C 32.867188 -36.921875 33.410156 -37.070312 33.890625 -37.25 C 34.378906 -37.425781 34.863281 -37.515625 35.34375 -37.515625 C 36.675781 -37.765625 38.035156 -37.765625 39.421875 -37.515625 C 40.816406 -37.273438 42.175781 -37.273438 43.5 -37.515625 C 45.914062 -38.003906 48.363281 -38.25 50.84375 -38.25 C 53.320312 -38.25 55.769531 -38.488281 58.1875 -38.96875 C 60.238281 -39.207031 62.472656 -39.328125 64.890625 -39.328125 C 67.304688 -39.328125 69.484375 -39.753906 71.421875 -40.609375 C 73.109375 -41.453125 74.316406 -42.898438 75.046875 -44.953125 C 74.554688 -46.035156 74.492188 -47.03125 74.859375 -47.9375 C 75.222656 -48.84375 75.34375 -49.84375 75.21875 -50.9375 C 75.101562 -51.539062 75.070312 -52.144531 75.125 -52.75 C 75.1875 -53.351562 75.28125 -53.957031 75.40625 -54.5625 C 75.53125 -54.800781 75.648438 -55.222656 75.765625 -55.828125 C 75.890625 -56.429688 75.890625 -56.851562 75.765625 -57.09375 C 75.765625 -57.457031 75.398438 -58.394531 74.671875 -59.90625 C 73.953125 -61.414062 73.140625 -63.078125 72.234375 -64.890625 C 71.328125 -66.703125 70.476562 -68.332031 69.6875 -69.78125 C 68.90625 -71.238281 68.394531 -72.085938 68.15625 -72.328125 C 67.789062 -72.691406 66.703125 -73.113281 64.890625 -73.59375 C 63.078125 -74.070312 60.960938 -74.550781 58.546875 -75.03125 C 56.128906 -75.519531 53.894531 -75.914062 51.84375 -76.21875 C 49.789062 -76.519531 48.398438 -76.671875 47.671875 -76.671875 C 45.734375 -76.671875 43.796875 -76.972656 41.859375 -77.578125 C 39.929688 -78.179688 37.941406 -78.484375 35.890625 -78.484375 C 35.410156 -78.484375 34.988281 -78.179688 34.625 -77.578125 C 34.257812 -76.609375 33.925781 -75.035156 33.625 -72.859375 C 33.320312 -70.691406 33.140625 -68.519531 33.078125 -66.34375 C 33.015625 -64.164062 33.046875 -62.535156 33.171875 -61.453125 C 33.535156 -59.273438 33.414062 -57.914062 32.8125 -57.375 C 32.207031 -56.832031 31.960938 -55.957031 32.078125 -54.75 C 32.679688 -51.71875 32.894531 -48.722656 32.71875 -45.765625 C 32.539062 -42.804688 32.390625 -39.816406 32.265625 -36.796875 Z M 32.265625 -36.796875 "/></g></g></g><g fill="#f1bc52" fill-opacity="1"><g transform="translate(663.222631, 218.116624)"><g><path d="M 30.265625 -67.796875 C 31.835938 -69.367188 33.109375 -70.878906 34.078125 -72.328125 C 35.046875 -73.773438 36.554688 -75.101562 38.609375 -76.3125 C 39.085938 -76.675781 40.171875 -77.128906 41.859375 -77.671875 C 43.554688 -78.210938 45.460938 -78.753906 47.578125 -79.296875 C 49.691406 -79.847656 51.625 -80.332031 53.375 -80.75 C 55.132812 -81.175781 56.253906 -81.390625 56.734375 -81.390625 C 59.515625 -81.390625 62.71875 -81.71875 66.34375 -82.375 C 69.96875 -83.039062 73.109375 -83.015625 75.765625 -82.296875 C 76.609375 -82.054688 77.421875 -81.632812 78.203125 -81.03125 C 78.992188 -80.425781 79.8125 -80 80.65625 -79.75 C 81.863281 -79.269531 83.132812 -78.96875 84.46875 -78.84375 C 85.800781 -78.726562 87.070312 -78.367188 88.28125 -77.765625 C 91.78125 -76.191406 95.039062 -74.285156 98.0625 -72.046875 C 101.082031 -69.816406 103.441406 -66.945312 105.140625 -63.4375 C 106.953125 -59.570312 107.675781 -55.859375 107.3125 -52.296875 C 106.945312 -48.734375 105.976562 -45.257812 104.40625 -41.875 C 102.832031 -38.488281 101.203125 -35.101562 99.515625 -31.71875 C 98.910156 -30.507812 98.546875 -29.238281 98.421875 -27.90625 C 98.304688 -26.582031 97.945312 -25.253906 97.34375 -23.921875 C 96.851562 -22.472656 95.488281 -20.960938 93.25 -19.390625 C 91.019531 -17.816406 88.484375 -16.304688 85.640625 -14.859375 C 82.804688 -13.410156 80.054688 -12.203125 77.390625 -11.234375 C 74.734375 -10.265625 72.679688 -9.601562 71.234375 -9.25 C 65.554688 -7.914062 60.660156 -7.035156 56.546875 -6.609375 C 52.441406 -6.191406 48.363281 -6.34375 44.3125 -7.0625 C 40.269531 -7.789062 35.46875 -9.242188 29.90625 -11.421875 C 29.0625 -11.785156 28.273438 -12.175781 27.546875 -12.59375 C 26.828125 -13.019531 26.164062 -13.59375 25.5625 -14.3125 C 25.070312 -15.039062 24.644531 -15.707031 24.28125 -16.3125 C 23.925781 -16.914062 23.445312 -17.519531 22.84375 -18.125 C 21.269531 -19.820312 19.453125 -21.515625 17.390625 -23.203125 C 15.335938 -24.890625 14.007812 -26.941406 13.40625 -29.359375 C 13.050781 -31.054688 12.929688 -32.75 13.046875 -34.4375 C 13.171875 -36.132812 13.113281 -37.765625 12.875 -39.328125 C 12.382812 -42.710938 12.625 -45.972656 13.59375 -49.109375 C 14.5625 -52.253906 16.007812 -55.160156 17.9375 -57.828125 C 18.90625 -59.148438 19.421875 -60.203125 19.484375 -60.984375 C 19.546875 -61.773438 19.757812 -62.5625 20.125 -63.34375 C 20.488281 -64.132812 21.515625 -65.195312 23.203125 -66.53125 C 24.410156 -67.488281 25.523438 -68.085938 26.546875 -68.328125 C 27.578125 -68.578125 28.816406 -68.398438 30.265625 -67.796875 Z M 38.0625 -58.1875 C 37.582031 -57.457031 37.160156 -56.726562 36.796875 -56 C 36.429688 -55.28125 36.007812 -54.5 35.53125 -53.65625 C 34.800781 -52.082031 33.863281 -50.421875 32.71875 -48.671875 C 31.570312 -46.921875 30.695312 -45.140625 30.09375 -43.328125 C 29.488281 -41.515625 29.546875 -39.640625 30.265625 -37.703125 C 30.867188 -36.128906 31.503906 -34.769531 32.171875 -33.625 C 32.835938 -32.476562 32.867188 -31.054688 32.265625 -29.359375 C 32.503906 -29.117188 33.195312 -28.484375 34.34375 -27.453125 C 35.5 -26.429688 36.648438 -25.4375 37.796875 -24.46875 C 38.941406 -23.5 39.515625 -22.957031 39.515625 -22.84375 C 40.242188 -22.476562 41.90625 -22.296875 44.5 -22.296875 C 47.09375 -22.296875 49.929688 -22.382812 53.015625 -22.5625 C 56.097656 -22.75 58.878906 -23.019531 61.359375 -23.375 C 63.835938 -23.738281 65.378906 -24.164062 65.984375 -24.65625 C 67.304688 -25.625 68.601562 -26.679688 69.875 -27.828125 C 71.144531 -28.972656 72.445312 -30.03125 73.78125 -31 C 75.101562 -32.207031 76.519531 -33.320312 78.03125 -34.34375 C 79.539062 -35.375 81.019531 -36.429688 82.46875 -37.515625 C 83.800781 -38.609375 84.617188 -40.117188 84.921875 -42.046875 C 85.222656 -43.984375 85.554688 -45.738281 85.921875 -47.3125 C 86.523438 -49.363281 87.429688 -51.296875 88.640625 -53.109375 C 89.847656 -54.921875 90.085938 -56.914062 89.359375 -59.09375 C 88.878906 -60.425781 88.15625 -61.695312 87.1875 -62.90625 C 86.21875 -64.113281 85.070312 -64.894531 83.75 -65.25 C 80 -66.457031 75.644531 -66.820312 70.6875 -66.34375 C 65.738281 -65.863281 61.269531 -65.625 57.28125 -65.625 C 54.863281 -65.625 52.835938 -64.773438 51.203125 -63.078125 C 49.578125 -61.390625 47.734375 -60.0625 45.671875 -59.09375 C 44.828125 -58.613281 43.617188 -58.375 42.046875 -58.375 C 40.484375 -58.375 39.15625 -58.3125 38.0625 -58.1875 Z M 38.0625 -58.1875 "/></g></g></g><g fill="#fbd9cd" fill-opacity="1"><g transform="translate(784.851525, 218.116624)"><g><path d="M 30.265625 -67.796875 C 31.835938 -69.367188 33.109375 -70.878906 34.078125 -72.328125 C 35.046875 -73.773438 36.554688 -75.101562 38.609375 -76.3125 C 39.085938 -76.675781 40.171875 -77.128906 41.859375 -77.671875 C 43.554688 -78.210938 45.460938 -78.753906 47.578125 -79.296875 C 49.691406 -79.847656 51.625 -80.332031 53.375 -80.75 C 55.132812 -81.175781 56.253906 -81.390625 56.734375 -81.390625 C 59.515625 -81.390625 62.71875 -81.71875 66.34375 -82.375 C 69.96875 -83.039062 73.109375 -83.015625 75.765625 -82.296875 C 76.609375 -82.054688 77.421875 -81.632812 78.203125 -81.03125 C 78.992188 -80.425781 79.8125 -80 80.65625 -79.75 C 81.863281 -79.269531 83.132812 -78.96875 84.46875 -78.84375 C 85.800781 -78.726562 87.070312 -78.367188 88.28125 -77.765625 C 91.78125 -76.191406 95.039062 -74.285156 98.0625 -72.046875 C 101.082031 -69.816406 103.441406 -66.945312 105.140625 -63.4375 C 106.953125 -59.570312 107.675781 -55.859375 107.3125 -52.296875 C 106.945312 -48.734375 105.976562 -45.257812 104.40625 -41.875 C 102.832031 -38.488281 101.203125 -35.101562 99.515625 -31.71875 C 98.910156 -30.507812 98.546875 -29.238281 98.421875 -27.90625 C 98.304688 -26.582031 97.945312 -25.253906 97.34375 -23.921875 C 96.851562 -22.472656 95.488281 -20.960938 93.25 -19.390625 C 91.019531 -17.816406 88.484375 -16.304688 85.640625 -14.859375 C 82.804688 -13.410156 80.054688 -12.203125 77.390625 -11.234375 C 74.734375 -10.265625 72.679688 -9.601562 71.234375 -9.25 C 65.554688 -7.914062 60.660156 -7.035156 56.546875 -6.609375 C 52.441406 -6.191406 48.363281 -6.34375 44.3125 -7.0625 C 40.269531 -7.789062 35.46875 -9.242188 29.90625 -11.421875 C 29.0625 -11.785156 28.273438 -12.175781 27.546875 -12.59375 C 26.828125 -13.019531 26.164062 -13.59375 25.5625 -14.3125 C 25.070312 -15.039062 24.644531 -15.707031 24.28125 -16.3125 C 23.925781 -16.914062 23.445312 -17.519531 22.84375 -18.125 C 21.269531 -19.820312 19.453125 -21.515625 17.390625 -23.203125 C 15.335938 -24.890625 14.007812 -26.941406 13.40625 -29.359375 C 13.050781 -31.054688 12.929688 -32.75 13.046875 -34.4375 C 13.171875 -36.132812 13.113281 -37.765625 12.875 -39.328125 C 12.382812 -42.710938 12.625 -45.972656 13.59375 -49.109375 C 14.5625 -52.253906 16.007812 -55.160156 17.9375 -57.828125 C 18.90625 -59.148438 19.421875 -60.203125 19.484375 -60.984375 C 19.546875 -61.773438 19.757812 -62.5625 20.125 -63.34375 C 20.488281 -64.132812 21.515625 -65.195312 23.203125 -66.53125 C 24.410156 -67.488281 25.523438 -68.085938 26.546875 -68.328125 C 27.578125 -68.578125 28.816406 -68.398438 30.265625 -67.796875 Z M 38.0625 -58.1875 C 37.582031 -57.457031 37.160156 -56.726562 36.796875 -56 C 36.429688 -55.28125 36.007812 -54.5 35.53125 -53.65625 C 34.800781 -52.082031 33.863281 -50.421875 32.71875 -48.671875 C 31.570312 -46.921875 30.695312 -45.140625 30.09375 -43.328125 C 29.488281 -41.515625 29.546875 -39.640625 30.265625 -37.703125 C 30.867188 -36.128906 31.503906 -34.769531 32.171875 -33.625 C 32.835938 -32.476562 32.867188 -31.054688 32.265625 -29.359375 C 32.503906 -29.117188 33.195312 -28.484375 34.34375 -27.453125 C 35.5 -26.429688 36.648438 -25.4375 37.796875 -24.46875 C 38.941406 -23.5 39.515625 -22.957031 39.515625 -22.84375 C 40.242188 -22.476562 41.90625 -22.296875 44.5 -22.296875 C 47.09375 -22.296875 49.929688 -22.382812 53.015625 -22.5625 C 56.097656 -22.75 58.878906 -23.019531 61.359375 -23.375 C 63.835938 -23.738281 65.378906 -24.164062 65.984375 -24.65625 C 67.304688 -25.625 68.601562 -26.679688 69.875 -27.828125 C 71.144531 -28.972656 72.445312 -30.03125 73.78125 -31 C 75.101562 -32.207031 76.519531 -33.320312 78.03125 -34.34375 C 79.539062 -35.375 81.019531 -36.429688 82.46875 -37.515625 C 83.800781 -38.609375 84.617188 -40.117188 84.921875 -42.046875 C 85.222656 -43.984375 85.554688 -45.738281 85.921875 -47.3125 C 86.523438 -49.363281 87.429688 -51.296875 88.640625 -53.109375 C 89.847656 -54.921875 90.085938 -56.914062 89.359375 -59.09375 C 88.878906 -60.425781 88.15625 -61.695312 87.1875 -62.90625 C 86.21875 -64.113281 85.070312 -64.894531 83.75 -65.25 C 80 -66.457031 75.644531 -66.820312 70.6875 -66.34375 C 65.738281 -65.863281 61.269531 -65.625 57.28125 -65.625 C 54.863281 -65.625 52.835938 -64.773438 51.203125 -63.078125 C 49.578125 -61.390625 47.734375 -60.0625 45.671875 -59.09375 C 44.828125 -58.613281 43.617188 -58.375 42.046875 -58.375 C 40.484375 -58.375 39.15625 -58.3125 38.0625 -58.1875 Z M 38.0625 -58.1875 "/></g></g></g><g fill="#d4dcd1" fill-opacity="1"><g transform="translate(906.480427, 218.116624)"><g><path d="M 30.265625 -67.796875 C 31.835938 -69.367188 33.109375 -70.878906 34.078125 -72.328125 C 35.046875 -73.773438 36.554688 -75.101562 38.609375 -76.3125 C 39.085938 -76.675781 40.171875 -77.128906 41.859375 -77.671875 C 43.554688 -78.210938 45.460938 -78.753906 47.578125 -79.296875 C 49.691406 -79.847656 51.625 -80.332031 53.375 -80.75 C 55.132812 -81.175781 56.253906 -81.390625 56.734375 -81.390625 C 59.515625 -81.390625 62.71875 -81.71875 66.34375 -82.375 C 69.96875 -83.039062 73.109375 -83.015625 75.765625 -82.296875 C 76.609375 -82.054688 77.421875 -81.632812 78.203125 -81.03125 C 78.992188 -80.425781 79.8125 -80 80.65625 -79.75 C 81.863281 -79.269531 83.132812 -78.96875 84.46875 -78.84375 C 85.800781 -78.726562 87.070312 -78.367188 88.28125 -77.765625 C 91.78125 -76.191406 95.039062 -74.285156 98.0625 -72.046875 C 101.082031 -69.816406 103.441406 -66.945312 105.140625 -63.4375 C 106.953125 -59.570312 107.675781 -55.859375 107.3125 -52.296875 C 106.945312 -48.734375 105.976562 -45.257812 104.40625 -41.875 C 102.832031 -38.488281 101.203125 -35.101562 99.515625 -31.71875 C 98.910156 -30.507812 98.546875 -29.238281 98.421875 -27.90625 C 98.304688 -26.582031 97.945312 -25.253906 97.34375 -23.921875 C 96.851562 -22.472656 95.488281 -20.960938 93.25 -19.390625 C 91.019531 -17.816406 88.484375 -16.304688 85.640625 -14.859375 C 82.804688 -13.410156 80.054688 -12.203125 77.390625 -11.234375 C 74.734375 -10.265625 72.679688 -9.601562 71.234375 -9.25 C 65.554688 -7.914062 60.660156 -7.035156 56.546875 -6.609375 C 52.441406 -6.191406 48.363281 -6.34375 44.3125 -7.0625 C 40.269531 -7.789062 35.46875 -9.242188 29.90625 -11.421875 C 29.0625 -11.785156 28.273438 -12.175781 27.546875 -12.59375 C 26.828125 -13.019531 26.164062 -13.59375 25.5625 -14.3125 C 25.070312 -15.039062 24.644531 -15.707031 24.28125 -16.3125 C 23.925781 -16.914062 23.445312 -17.519531 22.84375 -18.125 C 21.269531 -19.820312 19.453125 -21.515625 17.390625 -23.203125 C 15.335938 -24.890625 14.007812 -26.941406 13.40625 -29.359375 C 13.050781 -31.054688 12.929688 -32.75 13.046875 -34.4375 C 13.171875 -36.132812 13.113281 -37.765625 12.875 -39.328125 C 12.382812 -42.710938 12.625 -45.972656 13.59375 -49.109375 C 14.5625 -52.253906 16.007812 -55.160156 17.9375 -57.828125 C 18.90625 -59.148438 19.421875 -60.203125 19.484375 -60.984375 C 19.546875 -61.773438 19.757812 -62.5625 20.125 -63.34375 C 20.488281 -64.132812 21.515625 -65.195312 23.203125 -66.53125 C 24.410156 -67.488281 25.523438 -68.085938 26.546875 -68.328125 C 27.578125 -68.578125 28.816406 -68.398438 30.265625 -67.796875 Z M 38.0625 -58.1875 C 37.582031 -57.457031 37.160156 -56.726562 36.796875 -56 C 36.429688 -55.28125 36.007812 -54.5 35.53125 -53.65625 C 34.800781 -52.082031 33.863281 -50.421875 32.71875 -48.671875 C 31.570312 -46.921875 30.695312 -45.140625 30.09375 -43.328125 C 29.488281 -41.515625 29.546875 -39.640625 30.265625 -37.703125 C 30.867188 -36.128906 31.503906 -34.769531 32.171875 -33.625 C 32.835938 -32.476562 32.867188 -31.054688 32.265625 -29.359375 C 32.503906 -29.117188 33.195312 -28.484375 34.34375 -27.453125 C 35.5 -26.429688 36.648438 -25.4375 37.796875 -24.46875 C 38.941406 -23.5 39.515625 -22.957031 39.515625 -22.84375 C 40.242188 -22.476562 41.90625 -22.296875 44.5 -22.296875 C 47.09375 -22.296875 49.929688 -22.382812 53.015625 -22.5625 C 56.097656 -22.75 58.878906 -23.019531 61.359375 -23.375 C 63.835938 -23.738281 65.378906 -24.164062 65.984375 -24.65625 C 67.304688 -25.625 68.601562 -26.679688 69.875 -27.828125 C 71.144531 -28.972656 72.445312 -30.03125 73.78125 -31 C 75.101562 -32.207031 76.519531 -33.320312 78.03125 -34.34375 C 79.539062 -35.375 81.019531 -36.429688 82.46875 -37.515625 C 83.800781 -38.609375 84.617188 -40.117188 84.921875 -42.046875 C 85.222656 -43.984375 85.554688 -45.738281 85.921875 -47.3125 C 86.523438 -49.363281 87.429688 -51.296875 88.640625 -53.109375 C 89.847656 -54.921875 90.085938 -56.914062 89.359375 -59.09375 C 88.878906 -60.425781 88.15625 -61.695312 87.1875 -62.90625 C 86.21875 -64.113281 85.070312 -64.894531 83.75 -65.25 C 80 -66.457031 75.644531 -66.820312 70.6875 -66.34375 C 65.738281 -65.863281 61.269531 -65.625 57.28125 -65.625 C 54.863281 -65.625 52.835938 -64.773438 51.203125 -63.078125 C 49.578125 -61.390625 47.734375 -60.0625 45.671875 -59.09375 C 44.828125 -58.613281 43.617188 -58.375 42.046875 -58.375 C 40.484375 -58.375 39.15625 -58.3125 38.0625 -58.1875 Z M 38.0625 -58.1875 "/></g></g></g><g fill="#543618" fill-opacity="1"><g transform="translate(1028.109322, 218.116624)"><g><path d="M 74.5 -61.09375 C 73.769531 -61.332031 72.5625 -61.78125 70.875 -62.4375 C 69.1875 -63.101562 67.585938 -63.738281 66.078125 -64.34375 C 64.566406 -64.945312 63.628906 -65.191406 63.265625 -65.078125 C 61.816406 -65.078125 60.394531 -64.894531 59 -64.53125 C 57.613281 -64.164062 56.132812 -64.046875 54.5625 -64.171875 C 51.78125 -64.285156 48.425781 -64.707031 44.5 -65.4375 C 40.570312 -66.164062 37.21875 -66.769531 34.4375 -67.25 L 32.8125 -66.34375 C 31.96875 -65.863281 31.394531 -64.472656 31.09375 -62.171875 C 30.789062 -59.878906 30.609375 -57.492188 30.546875 -55.015625 C 30.484375 -52.535156 30.453125 -50.753906 30.453125 -49.671875 C 30.453125 -47.734375 30.390625 -45.796875 30.265625 -43.859375 C 30.148438 -41.929688 29.972656 -39.941406 29.734375 -37.890625 C 29.734375 -36.679688 29.941406 -35.441406 30.359375 -34.171875 C 30.785156 -32.898438 30.9375 -31.597656 30.8125 -30.265625 C 30.695312 -29.179688 30.578125 -27.25 30.453125 -24.46875 C 30.328125 -21.6875 30.113281 -18.96875 29.8125 -16.3125 C 29.507812 -13.65625 29.117188 -12.023438 28.640625 -11.421875 C 28.160156 -10.816406 27.132812 -10.363281 25.5625 -10.0625 C 23.988281 -9.757812 22.414062 -9.578125 20.84375 -9.515625 C 19.269531 -9.453125 18.125 -9.539062 17.40625 -9.78125 C 15.707031 -10.382812 14.34375 -11.441406 13.3125 -12.953125 C 12.289062 -14.460938 11.78125 -16.125 11.78125 -17.9375 C 11.78125 -19.269531 12.140625 -20.445312 12.859375 -21.46875 C 13.585938 -22.5 13.953125 -23.378906 13.953125 -24.109375 C 13.953125 -25.796875 13.832031 -27.394531 13.59375 -28.90625 C 13.351562 -30.414062 13.113281 -31.957031 12.875 -33.53125 C 12.75 -34.738281 12.742188 -35.882812 12.859375 -36.96875 C 12.984375 -38.0625 12.988281 -39.148438 12.875 -40.234375 C 12.625 -43.742188 12.863281 -47.21875 13.59375 -50.65625 C 14.320312 -54.101562 14.503906 -57.519531 14.140625 -60.90625 C 14.015625 -62.238281 13.769531 -63.144531 13.40625 -63.625 C 13.050781 -64.101562 12.929688 -65.070312 13.046875 -66.53125 C 13.171875 -67.851562 13.59375 -69.601562 14.3125 -71.78125 C 15.039062 -73.957031 15.945312 -76.039062 17.03125 -78.03125 C 18.125 -80.03125 19.273438 -81.332031 20.484375 -81.9375 C 21.816406 -82.78125 23.175781 -83.203125 24.5625 -83.203125 C 25.945312 -83.203125 27.367188 -83.203125 28.828125 -83.203125 C 30.273438 -83.921875 32.359375 -84.25 35.078125 -84.1875 C 37.796875 -84.132812 40.753906 -83.894531 43.953125 -83.46875 C 47.160156 -83.050781 50.210938 -82.597656 53.109375 -82.109375 C 56.015625 -81.628906 58.375 -81.269531 60.1875 -81.03125 C 62.84375 -80.90625 65.46875 -80.507812 68.0625 -79.84375 C 70.664062 -79.175781 73.296875 -78.722656 75.953125 -78.484375 C 77.160156 -78.367188 78.335938 -78.335938 79.484375 -78.390625 C 80.628906 -78.453125 81.6875 -78.242188 82.65625 -77.765625 C 84.34375 -76.921875 86.03125 -75.59375 87.71875 -73.78125 C 89.414062 -71.96875 90.78125 -69.972656 91.8125 -67.796875 C 92.84375 -65.617188 93.175781 -63.5625 92.8125 -61.625 C 92.6875 -60.90625 92.5625 -60.210938 92.4375 -59.546875 C 92.320312 -58.878906 92.144531 -58.242188 91.90625 -57.640625 C 91.78125 -56.796875 91.625 -55.945312 91.4375 -55.09375 C 91.257812 -54.25 91.171875 -53.40625 91.171875 -52.5625 C 91.171875 -48.820312 91.019531 -45.140625 90.71875 -41.515625 C 90.414062 -37.890625 90.265625 -34.203125 90.265625 -30.453125 C 90.265625 -27.671875 89.390625 -25.765625 87.640625 -24.734375 C 85.890625 -23.710938 83.832031 -23.289062 81.46875 -23.46875 C 79.113281 -23.65625 77 -24.109375 75.125 -24.828125 C 73.257812 -25.554688 72.207031 -26.285156 71.96875 -27.015625 C 71.238281 -29.429688 71.054688 -32.207031 71.421875 -35.34375 C 71.785156 -38.488281 72.296875 -41.660156 72.953125 -44.859375 C 73.617188 -48.066406 74.015625 -50.9375 74.140625 -53.46875 C 74.253906 -54.800781 74.191406 -55.738281 73.953125 -56.28125 C 73.710938 -56.820312 73.832031 -57.820312 74.3125 -59.28125 C 74.4375 -59.519531 74.554688 -59.816406 74.671875 -60.171875 C 74.796875 -60.535156 74.738281 -60.84375 74.5 -61.09375 Z M 74.5 -61.09375 "/></g></g></g></svg>