<svg xmlns="http://www.w3.org/2000/svg" xmlns:xlink="http://www.w3.org/1999/xlink" width="1584" zoomAndPan="magnify" viewBox="0 0 1188 305.03998" height="396" preserveAspectRatio="xMidYMid meet" version="1.0"><defs><clipPath id="0a32769e91"><path d="M 219.023438 121 L 968.914062 121 L 968.914062 173 L 219.023438 173 Z M 219.023438 121 " clip-rule="nonzero"/></clipPath></defs><g clip-path="url(#0a32769e91)"><path fill="#211815" d="M 934 140.214844 C 902.5625 141.960938 871.191406 144.558594 839.722656 145.855469 C 812.394531 146.988281 785.078125 148.550781 757.734375 149.683594 C 725.332031 151.03125 692.949219 152.59375 660.546875 153.578125 C 629.894531 154.507812 599.238281 155.671875 568.617188 157.46875 C 534.539062 159.46875 500.425781 160.765625 466.378906 163.492188 C 442.390625 165.40625 418.316406 166.222656 394.296875 167.785156 C 359.070312 170.082031 323.824219 171.496094 288.53125 171.597656 C 285.558594 171.597656 280.304688 175.242188 279.90625 169.832031 C 279.488281 164.160156 285.492188 166.457031 288.617188 166.371094 C 300.667969 166.023438 312.738281 166.238281 324.789062 166.238281 C 344.738281 165.425781 364.6875 164.839844 384.605469 163.726562 C 411.253906 162.210938 437.882812 160.382812 464.53125 158.800781 C 482.238281 157.753906 499.941406 156.820312 517.648438 156.007812 C 555.066406 154.277344 592.472656 152.660156 629.894531 151.015625 C 642.378906 150.464844 654.863281 150.414062 667.347656 149.765625 C 696.890625 148.25 726.480469 147.867188 756.039062 146.753906 C 785.363281 145.65625 814.6875 144.375 843.980469 142.859375 C 873.238281 141.347656 902.511719 139.847656 931.722656 137.535156 C 942.359375 136.6875 953.632812 137.71875 963.40625 131.613281 C 964.921875 130.679688 967.199219 130.296875 967.878906 132.378906 C 968.742188 135.039062 965.949219 135.507812 964.273438 136.023438 C 954.414062 139.015625 944.125 139.683594 933.984375 140.230469 Z M 222.75 145.554688 C 220.804688 145.757812 219.144531 146.355469 219.160156 148.484375 C 219.160156 150.898438 221.203125 150.949219 222.984375 150.914062 C 225.394531 150.863281 227.820312 150.78125 230.199219 150.515625 C 248.1875 148.5 266.140625 145.921875 284.175781 144.523438 C 307.519531 142.710938 330.90625 141.378906 354.316406 140.613281 C 403.820312 139 453.34375 137.667969 502.867188 136.652344 C 533.988281 136.023438 565.09375 135.007812 596.195312 134.15625 C 630.375 133.226562 664.554688 132.027344 698.734375 131.59375 C 738.414062 131.078125 778.082031 128.851562 814.9375 130.097656 C 850.347656 127.835938 883.0625 129.765625 915.5625 126.1875 C 917.425781 125.988281 920.132812 126.621094 919.933594 123.707031 C 919.71875 120.730469 917.226562 121.792969 915.332031 122.027344 C 904.109375 123.390625 892.921875 125.503906 881.667969 125.90625 C 863.496094 126.535156 845.277344 126.769531 827.089844 126.984375 C 773.59375 127.652344 720.113281 128.101562 666.617188 129.714844 C 631.789062 130.761719 596.929688 131.378906 562.101562 132.3125 C 523.75 133.34375 485.394531 134.023438 447.042969 134.90625 C 412.632812 135.6875 378.238281 136.503906 343.839844 137.453125 C 311.441406 138.351562 279.15625 140.5625 246.855469 143.042969 C 238.808594 143.660156 230.78125 144.722656 222.75 145.539062 Z M 222.75 145.554688 " fill-opacity="1" fill-rule="nonzero"/></g></svg>