<svg xmlns="http://www.w3.org/2000/svg" xmlns:xlink="http://www.w3.org/1999/xlink" width="1584" zoomAndPan="magnify" viewBox="0 0 1188 305.03998" height="396" preserveAspectRatio="xMidYMid meet" version="1.0"><defs><clipPath id="5cce1ff67c"><path d="M 258 116.058594 L 930 116.058594 L 930 180 L 258 180 Z M 258 116.058594 " clip-rule="nonzero"/></clipPath></defs><g clip-path="url(#5cce1ff67c)"><path fill="#543618" d="M 294.933594 145.800781 C 346.28125 138.609375 411.050781 133.15625 489.238281 129.449219 L 489.246094 129.445312 C 560.746094 126.132812 605.511719 124.273438 623.546875 123.867188 L 623.554688 123.863281 C 817.394531 119.957031 917.539062 117.433594 923.992188 116.285156 C 922.882812 116.484375 921.976562 117.128906 921.273438 118.226562 L 925.484375 125.296875 L 845.746094 131.070312 L 845.660156 131.074219 L 702.585938 138.738281 L 702.621094 138.738281 C 688.164062 139.621094 659.488281 141.695312 616.589844 144.964844 L 616.613281 144.960938 L 616.601562 144.964844 L 616.578125 144.964844 C 586.765625 147.234375 562.671875 149.3125 544.296875 151.207031 L 544.328125 151.203125 C 490.257812 157.136719 402.363281 166.257812 280.652344 178.566406 L 280.597656 178.570312 C 270.867188 179.445312 265.03125 179.785156 263.09375 179.589844 C 260.230469 179.304688 258.683594 177.859375 258.449219 175.253906 L 258.449219 175.257812 C 258.230469 172.851562 259.375 171.179688 261.878906 170.242188 C 264.339844 169.320312 274.484375 167.429688 292.304688 164.570312 C 292.363281 164.5625 292.421875 164.554688 292.476562 164.546875 C 376.285156 154.390625 491.761719 150.9375 638.910156 154.183594 C 641.453125 154.242188 643.46875 156.347656 643.410156 158.886719 C 643.355469 161.429688 641.25 163.441406 638.707031 163.386719 C 491.996094 160.148438 376.957031 163.582031 293.585938 173.683594 L 293.761719 173.660156 C 276.546875 176.421875 266.996094 178.152344 265.109375 178.863281 C 266.984375 178.160156 267.820312 176.683594 267.613281 174.429688 L 267.617188 174.429688 C 267.394531 171.984375 266.195312 170.648438 264.011719 170.433594 C 265.371094 170.566406 270.625 170.226562 279.777344 169.402344 L 279.726562 169.40625 C 401.425781 157.101562 489.289062 147.984375 543.324219 142.054688 L 543.351562 142.050781 C 561.8125 140.148438 585.988281 138.0625 615.878906 135.789062 L 615.855469 135.789062 L 615.867188 135.789062 L 615.890625 135.785156 C 658.839844 132.515625 687.5625 130.433594 702.058594 129.550781 L 702.09375 129.546875 L 845.167969 121.882812 L 845.082031 121.890625 L 924.820312 116.117188 C 926.558594 115.992188 928.214844 116.855469 929.105469 118.351562 C 929.996094 119.847656 929.96875 121.71875 929.03125 123.1875 C 928.28125 124.355469 927.140625 125.074219 925.601562 125.347656 C 918.675781 126.578125 818.058594 129.152344 623.742188 133.066406 L 623.753906 133.066406 C 605.792969 133.472656 561.097656 135.332031 489.671875 138.640625 L 489.675781 138.640625 C 411.769531 142.335938 347.28125 147.761719 296.210938 154.914062 C 293.695312 155.269531 291.367188 153.511719 291.015625 150.996094 C 290.664062 148.476562 292.417969 146.152344 294.933594 145.800781 Z M 294.933594 145.800781 " fill-opacity="0.996" fill-rule="nonzero"/></g></svg>