<svg xmlns="http://www.w3.org/2000/svg" xmlns:xlink="http://www.w3.org/1999/xlink" width="1584" zoomAndPan="magnify" viewBox="0 0 1188 305.03998" height="396" preserveAspectRatio="xMidYMid meet" version="1.0"><defs><clipPath id="ce56e9e2da"><path d="M 219 136.25 L 971 136.25 L 971 160 L 219 160 Z M 219 136.25 " clip-rule="nonzero"/></clipPath></defs><g clip-path="url(#ce56e9e2da)"><path fill="#543618" d="M 655.292969 136.175781 L 647.074219 136.304688 L 648.902344 137.714844 C 608.851562 137.457031 563.570312 137.25 513.054688 137.101562 C 483.347656 137.046875 460.878906 137.152344 445.65625 137.417969 L 437.035156 137.847656 L 436.519531 138.972656 C 441.636719 139.078125 448.523438 139.324219 457.179688 139.71875 C 425.78125 140.542969 394.164062 141.738281 362.328125 143.300781 C 317.820312 145.441406 283.347656 147.429688 258.90625 149.273438 C 225.765625 152.042969 213.566406 154.246094 222.304688 155.878906 C 225.363281 156.308594 234.636719 156.222656 250.121094 155.625 C 253.6875 155.5 260.128906 155.21875 269.445312 154.78125 C 307.28125 152.863281 330.539062 151.734375 339.214844 151.386719 C 357.6875 150.574219 376.207031 149.851562 394.773438 149.222656 C 416.398438 148.519531 437.578125 147.976562 458.304688 147.589844 L 545.910156 146.195312 C 551.835938 145.910156 554.289062 145.539062 553.277344 145.085938 C 567.40625 145.175781 580.785156 145.480469 593.410156 146.003906 C 591.09375 146.144531 584.914062 146.246094 574.875 146.3125 L 564.417969 146.988281 L 572.378906 147.882812 C 641.886719 149.25 713.746094 151.886719 787.953125 155.800781 L 793.394531 155.34375 L 793.050781 154.757812 C 823.421875 155.535156 851.503906 156.710938 877.292969 158.277344 L 880.929688 158.253906 C 888.503906 158.597656 899.910156 158.953125 915.15625 159.320312 C 930.140625 159.566406 940.054688 159.621094 944.902344 159.476562 C 967.585938 159.019531 975.097656 157.503906 967.441406 154.9375 C 955.90625 151.445312 937.429688 148.746094 912.007812 146.84375 C 893.757812 145.289062 864.816406 143.671875 825.183594 141.996094 L 800.566406 141.039062 C 795.0625 141.488281 792.910156 141.785156 794.105469 141.933594 C 757.367188 139.804688 730.996094 138.433594 714.984375 137.8125 C 692.359375 136.882812 672.460938 136.335938 655.292969 136.175781 " fill-opacity="0.98" fill-rule="nonzero"/></g></svg>